<?xml version="1.0" standalone="no"?><!DOCTYPE svg PUBLIC "-//W3C//DTD SVG 1.1//EN" "http://www.w3.org/Graphics/SVG/1.1/DTD/svg11.dtd"><svg t="1699516451626" class="icon" viewBox="0 0 1024 1024" version="1.1" xmlns="http://www.w3.org/2000/svg" p-id="4773" xmlns:xlink="http://www.w3.org/1999/xlink" width="200" height="200"><path d="M793.258667 853.589333h-115.968a168.106667 168.106667 0 0 1-76.202667 102.741334 171.093333 171.093333 0 0 1-178.176 0c-44.458667-27.136-69.034667-57.429333-77.824-102.741334H85.333333v-145.450666l12.288-12.458667c4.437333-4.437333 40.789333-37.034667 51.114667-48.298667C190.677333 601.770667 213.333333 538.88 213.333333 426.496a409.6 409.6 0 0 1 20.778667-132.010667L55.168 115.498667l60.330667-60.330667 853.333333 853.333333-60.330667 60.330667-115.242666-115.242667z m-85.333334-85.333333L304.042667 364.373333A351.658667 351.658667 0 0 0 298.666667 426.496c0 132.992-30.122667 216.618667-87.125334 278.613333-8.96 9.770667-28.245333 27.648-40.874666 39.253334v23.893333h537.301333z m-273.621333 85.333333c5.973333 11.221333 16.298667 19.669333 33.066667 29.909334 27.392 16.725333 61.866667 16.725333 89.258666 0 12.672-7.722667 22.613333-17.962667 29.44-29.909334H434.346667zM810.666667 426.496v204.117333l-72.405334-72.362666c-8.533333-37.845333-12.928-81.237333-12.928-131.754667 0-160.725333-99.84-255.36-213.333333-255.36-43.946667 0-85.717333 14.037333-120.490667 40.533333L330.837333 150.954667a282.666667 282.666667 0 0 1 101.589334-53.930667 85.333333 85.333333 0 0 1 159.146666 0.085333C715.178667 133.248 810.666667 253.44 810.666667 426.538667z" p-id="4774" fill="#cdcdcd"></path></svg>