<?xml version="1.0" standalone="no"?><!DOCTYPE svg PUBLIC "-//W3C//DTD SVG 1.1//EN" "http://www.w3.org/Graphics/SVG/1.1/DTD/svg11.dtd"><svg t="1699359059106" class="icon" viewBox="0 0 1024 1024" version="1.1" xmlns="http://www.w3.org/2000/svg" p-id="1439" xmlns:xlink="http://www.w3.org/1999/xlink" width="200" height="200"><path d="M384 384c55.04 0 106.666667 17.493333 148.053333 47.36L750.08 213.333333H554.666667V128h341.333333v341.333333h-85.333333V273.493333l-218.026667 217.173334c29.866667 42.666667 47.36 93.866667 47.36 149.333333a256 256 0 0 1-256 256 256 256 0 0 1-256-256 256 256 0 0 1 256-256m0 85.333333a170.666667 170.666667 0 0 0-170.666667 170.666667 170.666667 170.666667 0 0 0 170.666667 170.666667 170.666667 170.666667 0 0 0 170.666667-170.666667 170.666667 170.666667 0 0 0-170.666667-170.666667z" fill="#5dc5fb" p-id="1440"></path></svg>