<?xml version="1.0" standalone="no"?><!DOCTYPE svg PUBLIC "-//W3C//DTD SVG 1.1//EN" "http://www.w3.org/Graphics/SVG/1.1/DTD/svg11.dtd"><svg t="1699359435586" class="icon" viewBox="0 0 1024 1024" version="1.1" xmlns="http://www.w3.org/2000/svg" p-id="21044" xmlns:xlink="http://www.w3.org/1999/xlink" width="200" height="200"><path d="M512 170.666667a256 256 0 0 1 256 256c0 126.72-92.16 232.106667-213.333333 252.586666V768h85.333333v85.333333h-85.333333v85.333334h-85.333334v-85.333334H384v-85.333333h85.333333v-88.746667c-121.173333-20.48-213.333333-125.866667-213.333333-252.586666a256 256 0 0 1 256-256m0 85.333333a170.666667 170.666667 0 0 0-170.666667 170.666667 170.666667 170.666667 0 0 0 170.666667 170.666666 170.666667 170.666667 0 0 0 170.666667-170.666666 170.666667 170.666667 0 0 0-170.666667-170.666667z" fill="#fd70b5" p-id="21045"></path></svg>