<?xml version="1.0" standalone="no"?><!DOCTYPE svg PUBLIC "-//W3C//DTD SVG 1.1//EN" "http://www.w3.org/Graphics/SVG/1.1/DTD/svg11.dtd"><svg t="1699421433351" class="icon" viewBox="0 0 1059 1024" version="1.1" xmlns="http://www.w3.org/2000/svg" p-id="3517" xmlns:xlink="http://www.w3.org/1999/xlink" width="206.8359375" height="200"><path d="M896.864 534.432H359.328a32.48 32.48 0 0 1-32.672-32.224c0-17.824 14.624-32.288 32.672-32.288h537.504l-96.576-95.36a31.648 31.648 0 0 1 0-45.184 32.512 32.512 0 0 1 45.696 0l149.056 147.2c5.952 4.64 10.336 11.264 11.968 18.848a31.552 31.552 0 0 1-13.312 33.536l-148.384 146.656a32.544 32.544 0 0 1-45.728 0 31.648 31.648 0 0 1-0.352-44.768l0.352-0.352 97.152-96.096h0.096v0.032z m-102.176 439.264H221.376c-93.888 0-170.208-75.296-170.208-167.84V218.176c0-92.544 76.352-167.872 170.208-167.872h573.344c93.888 0 170.272 75.328 170.272 167.872v67.84c0 17.824-14.624 32.256-32.672 32.256a32.416 32.416 0 0 1-32.608-32.224V218.112c0-56.96-47.136-103.36-104.992-103.36H221.376c-57.92 0-104.928 46.4-104.928 103.36v587.712c0 56.992 47.04 103.296 104.928 103.296h573.344c57.952 0 105.056-46.304 105.056-103.296v-88.32c0-17.76 14.56-32.192 32.544-32.192 18.048 0 32.672 14.432 32.672 32.192v88.32c-0.032 92.576-76.416 167.872-170.304 167.872z" fill="#666666" p-id="3518"></path></svg>