<?xml version="1.0" standalone="no"?><!DOCTYPE svg PUBLIC "-//W3C//DTD SVG 1.1//EN" "http://www.w3.org/Graphics/SVG/1.1/DTD/svg11.dtd"><svg t="1699009157515" class="icon" viewBox="0 0 1025 1024" version="1.1" xmlns="http://www.w3.org/2000/svg" p-id="1525" width="64" height="64" xmlns:xlink="http://www.w3.org/1999/xlink" style="transform: rotate(125deg);"><path d="M511.484254 0.066515C227.987504 0.066515-0.001023 227.399103-0.001023 510.114047c0 282.71392 227.987504 512.917906 511.485277 512.917906 283.461957 0 511.48016-230.203986 511.48016-512.917906C1022.964414 227.399103 794.94621 0.066515 511.484254 0.066515zM762.853281 772.349563l-57.003272 43.768853c-54.072523 16.044418-187.064466 42.271756-352.206644-190.872189-187.063443-252.120135-112.512517-394.946051-84.758406-419.698804l59.904345-42.270732 24.854061 7.306406 100.833523 145.69629-2.901073 23.320125-58.471716 40.803311c-26.28669 21.851681-8.772804 49.541323 10.237155 101.988836 17.543561 30.625508 57.003272 91.816149 83.290985 115.137297 45.297672 37.896098 65.777099 62.684668 96.468099 45.201481l55.505152-39.333844 21.977547 2.871397 105.142665 141.357472L762.853281 772.349563z" fill="#fc1010" p-id="1526"></path></svg>